{
  "asset": {
    "version": "2.0",
    "generator": "THREE.GLTFExporter"
  },
  "scenes": [
    {
      "name": "Scene",
      "nodes": [
        4
      ]
    }
  ],
  "scene": 0,
  "nodes": [
    {
      "name": "Model",
      "extras": {
        "name": "Model"
      },
      "mesh": 0
    },
    {
      "name": "Head",
      "extras": {
        "name": "Head"
      },
      "children": [
        0
      ]
    },
    {
      "matrix": [
        1,
        0,
        0,
        0,
        0,
        -3.0294626858226163e-7,
        -0.9999999657714297,
        0,
        0,
        0.9999999657714297,
        -3.0294626858226163e-7,
        0,
        0,
        0,
        0,
        1
      ],
      "name": "HeadModel",
      "extras": {
        "name": "HeadModel"
      },
      "children": [
        1
      ]
    },
    {
      "name": "headglb",
      "extras": {
        "name": "head.glb"
      },
      "children": [
        2
      ]
    },
    {
      "name": "scene.gltf",
      "children": [
        3
      ]
    }
  ],
  "bufferViews": [
    {
      "buffer": 0,
      "byteOffset": 0,
      "byteLength": 70360,
      "target": 34962,
      "byteStride": 8
    },
    {
      "buffer": 0,
      "byteOffset": 70360,
      "byteLength": 105540,
      "target": 34962,
      "byteStride": 12
    },
    {
      "buffer": 0,
      "byteOffset": 175900,
      "byteLength": 70360,
      "target": 34962,
      "byteStride": 8
    },
    {
      "buffer": 0,
      "byteOffset": 246260,
      "byteLength": 105540,
      "target": 34962,
      "byteStride": 12
    },
    {
      "buffer": 0,
      "byteOffset": 351800,
      "byteLength": 89232,
      "target": 34963
    }
  ],
  "buffers": [
    {
      "byteLength": 441032,
      "uri": "data:application/octet-stream;base64,"
    }
  ],
  "accessors": [
    {
      "bufferView": 0,
      "componentType": 5123,
      "count": 8795,
      "max": [
        65535,
        65535,
        65535,
        65535
      ],
      "min": [
        64952,
        64952,
        64952,
        65535
      ],
      "type": "VEC4",
      "normalized": true
    },
    {
      "bufferView": 1,
      "componentType": 5126,
      "count": 8795,
      "max": [
        1.933457374572754,
        2.4407389163970947,
        4.662393569946289
      ],
      "min": [
        -1.9335300922393799,
        -1.4111948013305664,
        -0.39646148681640625
      ],
      "type": "VEC3"
    },
    {
      "bufferView": 2,
      "componentType": 5126,
      "count": 8795,
      "max": [
        0.9866999983787537,
        0.986329972743988
      ],
      "min": [
        0.013290000148117542,
        0.02051997184753418
      ],
      "type": "VEC2"
    },
    {
      "bufferView": 3,
      "componentType": 5126,
      "count": 8795,
      "max": [
        0.9998999834060669,
        1,
        0.9998999834060669
      ],
      "min": [
        -0.9994999766349792,
        -1,
        -0.9995999932289124
      ],
      "type": "VEC3"
    },
    {
      "bufferView": 4,
      "componentType": 5123,
      "count": 44616,
      "max": [
        8794
      ],
      "min": [
        0
      ],
      "type": "SCALAR"
    }
  ],
  "materials": [
    {
      "pbrMetallicRoughness": {
        "baseColorFactor": [
          0.29613827078752575,
          0.29613827078752575,
          0.29613827078752575,
          0.2
        ],
        "metallicFactor": 0.5,
        "roughnessFactor": 0.5
      },
      "alphaMode": "BLEND",
      "doubleSided": true,
      "name": "Scene_-_Root"
    }
  ],
  "meshes": [
    {
      "primitives": [
        {
          "mode": 1,
          "attributes": {
            "COLOR_0": 0,
            "POSITION": 1,
            "TEXCOORD_0": 2,
            "NORMAL": 3
          },
          "indices": 4,
          "material": 0
        }
      ]
    }
  ]
}