{
  "asset": {
    "version": "2.0",
    "generator": "THREE.GLTFExporter"
  },
  "scenes": [
    {
      "name": "Scene",
      "nodes": [
        6
      ]
    }
  ],
  "scene": 0,
  "nodes": [
    {
      "matrix": [
        1,
        0,
        0,
        0,
        0,
        1,
        0,
        0,
        0,
        0,
        1,
        0,
        0.002750035218622119,
        0.02323737964020346,
        0.1594151399437458,
        1
      ],
      "name": "Lamp001",
      "extras": {
        "name": "Lamp.001"
      },
      "mesh": 0
    },
    {
      "matrix": [
        1,
        0,
        0,
        0,
        0,
        -3.0294626858226163e-7,
        -0.9999999657714297,
        0,
        0,
        0.9999999657714297,
        -3.0294626858226163e-7,
        0,
        0,
        0.00000877678394317627,
        0,
        1
      ],
      "name": "Lamp",
      "extras": {
        "name": "Lamp"
      },
      "children": [
        0
      ]
    },
    {
      "name": "LampNode",
      "extras": {
        "name": "LampNode"
      },
      "children": [
        1
      ]
    },
    {
      "matrix": [
        1,
        0,
        0,
        0,
        0,
        -3.0294626858226163e-7,
        0.9999999657714297,
        0,
        0,
        -0.9999999657714297,
        -3.0294626858226163e-7,
        0,
        0,
        0,
        0,
        1
      ],
      "name": "Bulb",
      "extras": {
        "name": "Bulb"
      },
      "children": [
        2
      ]
    },
    {
      "matrix": [
        1,
        0,
        0,
        0,
        0,
        -3.0294626858226163e-7,
        -0.9999999657714297,
        0,
        0,
        0.9999999657714297,
        -3.0294626858226163e-7,
        0,
        0,
        0,
        0,
        1
      ],
      "name": "Lamp_Bulb",
      "extras": {
        "name": "Lamp_Bulb"
      },
      "children": [
        3
      ]
    },
    {
      "matrix": [
        15,
        0,
        0,
        0,
        0,
        15,
        0,
        0,
        0,
        0,
        15,
        0,
        0,
        0,
        0,
        1
      ],
      "name": "LampBulbglb",
      "extras": {
        "name": "LampBulb.glb"
      },
      "children": [
        4
      ]
    },
    {
      "name": "scene.gltf",
      "children": [
        5
      ]
    }
  ],
  "bufferViews": [
    {
      "buffer": 0,
      "byteOffset": 0,
      "byteLength": 5676,
      "target": 34962,
      "byteStride": 12
    },
    {
      "buffer": 0,
      "byteOffset": 5676,
      "byteLength": 3784,
      "target": 34962,
      "byteStride": 8
    },
    {
      "buffer": 0,
      "byteOffset": 9460,
      "byteLength": 5676,
      "target": 34962,
      "byteStride": 12
    },
    {
      "buffer": 0,
      "byteOffset": 15136,
      "byteLength": 4116,
      "target": 34963
    }
  ],
  "buffers": [
    {
      "byteLength": 19252,
      "uri": "data:application/octet-stream;base64,"
    }
  ],
  "accessors": [
    {
      "bufferView": 0,
      "componentType": 5126,
      "count": 473,
      "max": [
        0.037625256925821304,
        0.037625256925821304,
        0.1256033480167389
      ],
      "min": [
        -0.037625256925821304,
        -0.037625256925821304,
        0
      ],
      "type": "VEC3"
    },
    {
      "bufferView": 1,
      "componentType": 5126,
      "count": 473,
      "max": [
        0.9833067655563354,
        0.9997646808624268
      ],
      "min": [
        0.000235391067690216,
        0.00023537874221801758
      ],
      "type": "VEC2"
    },
    {
      "bufferView": 2,
      "componentType": 5126,
      "count": 473,
      "max": [
        1,
        1,
        1
      ],
      "min": [
        -1,
        -1,
        -1
      ],
      "type": "VEC3"
    },
    {
      "bufferView": 3,
      "componentType": 5123,
      "count": 2058,
      "max": [
        472
      ],
      "min": [
        0
      ],
      "type": "SCALAR"
    }
  ],
  "materials": [
    {
      "pbrMetallicRoughness": {
        "baseColorFactor": [
          0.28314874041918053,
          0.28314874041918053,
          0.28314874041918053,
          0.3
        ],
        "metallicFactor": 1,
        "roughnessFactor": 1
      },
      "emissiveFactor": [
        0.28314874041918053,
        0.28314874041918053,
        0.28314874041918053
      ],
      "alphaMode": "BLEND",
      "doubleSided": true,
      "name": "LMP0003_Textures"
    }
  ],
  "meshes": [
    {
      "primitives": [
        {
          "mode": 4,
          "attributes": {
            "POSITION": 0,
            "TEXCOORD_0": 1,
            "NORMAL": 2
          },
          "indices": 3,
          "material": 0
        }
      ]
    }
  ]
}